Coordinates
version=1
nRows=12
nColumns=23
inDegrees=yes

Units are S.I. units (second, meters, Newtons, ...)
If the header above contains a line with 'inDegrees', this indicates whether rotational values are in degrees (yes) or radians (no).

endheader
time	pelvis_tilt	pelvis_list	pelvis_rotation	pelvis_tx	pelvis_ty	pelvis_tz	hip_flexion_r	hip_adduction_r	hip_rotation_r	knee_angle_r	knee_angle_r_beta	ankle_angle_r	subtalar_angle_r	mtp_angle_r	hip_flexion_l	hip_adduction_l	hip_rotation_l	knee_angle_l	knee_angle_l_beta	ankle_angle_l	subtalar_angle_l	mtp_angle_l
      7.50000000	     -6.39081444	     -2.59170398	     -5.10173587	      2.30603237	      0.97933840	      1.04744190	     25.26074535	      8.82432099	      6.28823145	     16.91863575	      0.29528590	     12.99634114	      0.31881334	      0.00000000	    -11.67332286	     -5.54751976	    -20.18969661	     46.97447210	      0.81985920	    -14.20027649	     -9.73118776	      0.00000000
      7.50666667	     -5.91434006	     -2.87282707	     -5.51242034	      2.30569344	      0.97673893	      1.04882878	     24.17796427	      9.25343044	      6.73377154	     15.86730200	      0.27693666	     12.39799741	      0.63006627	      0.00000000	    -11.52595767	     -6.05365725	    -20.47826161	     50.17254317	      0.87567607	    -13.92975211	    -11.24013297	      0.00000000
      7.51333333	     -5.48444525	     -3.20647558	     -6.07745365	      2.30500964	      0.97361253	      1.05037806	     23.36784710	      9.76689565	      6.94810020	     15.55820709	      0.27154194	     11.67181302	      0.92205898	      0.00000000	    -11.26420279	     -6.62735914	    -20.91144985	     53.49337134	      0.93363546	    -13.73474666	    -12.79346249	      0.00000000
      7.52000000	     -4.90664644	     -3.71219341	     -6.65025146	      2.30411947	      0.97032320	      1.05181603	     22.52082512	     10.42637670	      6.99080944	     15.79565429	      0.27568617	     10.64216020	      0.85632985	      0.00000000	    -11.08721146	     -7.32530122	    -21.24218679	     56.89239470	      0.99295961	    -13.63451018	    -14.41085584	      0.00000000
      7.52666667	     -4.20532062	     -4.28728816	     -7.31053077	      2.30293314	      0.96676977	      1.05326037	     21.74133173	     11.14939765	      6.87731986	     16.72758030	      0.29195135	      9.51271279	      0.58017067	      0.00000000	    -11.00418677	     -8.07335357	    -21.65841101	     60.32791314	      1.05292072	    -13.49508989	    -15.99145125	      0.00000000
      7.53333333	     -3.79197190	     -4.90689515	     -7.99639339	      2.30140353	      0.96250011	      1.05464731	     21.39391967	     11.98999302	      6.95175724	     18.17020269	      0.31712986	      8.31917218	     -0.40676518	      0.00000000	    -10.49191220	     -8.86967510	    -21.92611511	     63.88987172	      1.11508862	    -13.57678761	    -17.83935598	      0.00000000
      7.54000000	     -2.94749345	     -5.73145940	     -8.66211359	      2.29979718	      0.95840865	      1.05588669	     20.70933582	     12.90412063	      6.61280079	     20.14293035	      0.35156046	      7.44080610	     -1.00733092	      0.00000000	    -10.48678659	     -9.86713368	    -22.32279623	     67.38823227	      1.17614653	    -13.42561778	    -19.29787715	      0.00000000
      7.54666667	     -2.81659694	     -6.23025723	     -9.58332606	      2.29747943	      0.95290818	      1.05734128	     21.17163253	     13.67689761	      6.47364294	     23.02227116	      0.40181443	      7.34136702	     -1.58992986	      0.00000000	     -9.52788277	    -10.55286354	    -22.64833187	     71.05021303	      1.24006015	    -13.34102846	    -20.91319386	      0.00000000
      7.55333333	     -2.40790189	     -6.78188966	    -10.37551692	      2.29515599	      0.94750948	      1.05839406	     21.41246163	     14.31148647	      5.92808163	     26.20175567	      0.45730691	      7.76247630	     -1.61751459	      0.00000000	     -8.82554295	    -11.24215555	    -22.83772919	     74.60101371	      1.30203331	    -13.05504038	    -22.25151694	      0.00000000
      7.56000000	     -1.96431747	     -7.35654676	    -11.08070962	      2.29275247	      0.94203636	      1.05910270	     21.62660765	     14.85906202	      5.28325814	     29.51779418	      0.51518270	      8.77583211	     -1.25472033	      0.00000000	     -8.08838370	    -11.94242306	    -22.89395684	     78.08306337	      1.36280655	    -12.63432047	    -23.37333560	      0.00000000
      7.56666667	     -1.11822563	     -8.27660260	    -11.58265407	      2.29051716	      0.93732370	      1.05940378	     21.07164615	     15.67732849	      5.00836688	     32.34595013	      0.56454333	      9.88324015	     -1.52336785	      0.00000000	     -7.83087349	    -12.96005237	    -22.85127190	     81.39116346	      1.42054378	    -12.13481970	    -24.27410400	      0.00000000
      7.57333333	     -0.96345078	     -8.52421444	    -12.20855730	      2.28789810	      0.93153099	      1.05947439	     21.67062262	     15.61512552	      3.86915690	     35.84139897	      0.62555042	     12.06854614	      0.42620564	      0.00000000	     -6.51395852	    -13.27089304	    -22.56107011	     84.66509971	      1.47768475	    -11.47183028	    -24.95204584	      0.00000000
